name ./resultDataOpenSim/trcMotMarkerGrf/sub06/grf-05-05.mot
datacolumns 19
datarows 30
range 1.00800000 1.12400000
endheader

                time	     ground_force_vx	     ground_force_vy	     ground_force_vz	     ground_force_px	     ground_force_py	     ground_force_pz	   l_ground_force_vx	   l_ground_force_vy	   l_ground_force_vz	   l_ground_force_px	   l_ground_force_py	   l_ground_force_pz	     ground_torque_x	     ground_torque_y	     ground_torque_z	   l_ground_torque_x	   l_ground_torque_y	   l_ground_torque_z	
          1.00800000	          0.00000000	          0.00000000	          0.00000000	          0.00000000	          0.00000000	          0.00000000	         66.59952177	        412.58821879	         14.91405456	          0.03718396	         -0.10000000	          0.00269115	          0.00000000	          0.00000000	          0.00000000	          0.00000000	         -1.65359868	          0.00000000	
          1.01200000	          0.00000000	          0.00000000	          0.00000000	          0.00000000	          0.00000000	          0.00000000	         71.07640676	        435.31381050	         16.52807893	          0.03734957	         -0.10000000	          0.00294089	          0.00000000	          0.00000000	          0.00000000	          0.00000000	         -1.71142871	          0.00000000	
          1.01600000	          0.00000000	          0.00000000	          0.00000000	          0.00000000	          0.00000000	          0.00000000	         75.96072906	        458.69945412	         17.91869854	          0.03759745	         -0.10000000	          0.00324980	          0.00000000	          0.00000000	          0.00000000	          0.00000000	         -1.77942871	          0.00000000	
          1.02000000	          0.00000000	          0.00000000	          0.00000000	          0.00000000	          0.00000000	          0.00000000	         81.29641910	        482.44714560	         19.04226365	          0.03795290	         -0.10000000	          0.00363281	          0.00000000	          0.00000000	          0.00000000	          0.00000000	         -1.85799771	          0.00000000	
          1.02400000	          0.00000000	          0.00000000	          0.00000000	          0.00000000	          0.00000000	          0.00000000	         87.08974043	        506.28095120	         19.86509103	          0.03842427	         -0.10000000	          0.00407956	          0.00000000	          0.00000000	          0.00000000	          0.00000000	         -1.94628579	          0.00000000	
          1.02800000	          0.00000000	          0.00000000	          0.00000000	          0.00000000	          0.00000000	          0.00000000	         93.31728700	        529.92140977	         20.36911417	          0.03902256	         -0.10000000	          0.00457812	          0.00000000	          0.00000000	          0.00000000	          0.00000000	         -2.04223026	          0.00000000	
          1.03200000	          0.00000000	          0.00000000	          0.00000000	          0.00000000	          0.00000000	          0.00000000	         99.94129602	        553.07389337	         20.56936475	          0.03973528	         -0.10000000	          0.00512012	          0.00000000	          0.00000000	          0.00000000	          0.00000000	         -2.14284081	          0.00000000	
          1.03600000	          0.00000000	          0.00000000	          0.00000000	          0.00000000	          0.00000000	          0.00000000	        106.92275640	        575.41606581	         20.50251167	          0.04050600	         -0.10000000	          0.00568102	          0.00000000	          0.00000000	          0.00000000	          0.00000000	         -2.24469571	          0.00000000	
          1.04000000	          0.00000000	          0.00000000	          0.00000000	          0.00000000	          0.00000000	          0.00000000	        114.21835065	        596.61222980	         20.19762675	          0.04124646	         -0.10000000	          0.00621571	          0.00000000	          0.00000000	          0.00000000	          0.00000000	         -2.34450707	          0.00000000	
          1.04400000	          0.00000000	          0.00000000	          0.00000000	          0.00000000	          0.00000000	          0.00000000	        121.76661023	        616.36727273	         19.66105588	          0.04187548	         -0.10000000	          0.00667691	          0.00000000	          0.00000000	          0.00000000	          0.00000000	         -2.43957655	          0.00000000	
          1.04800000	          0.00000000	          0.00000000	          0.00000000	          0.00000000	          0.00000000	          0.00000000	        129.49150235	        634.48238131	         18.88432069	          0.04237696	         -0.10000000	          0.00704667	          0.00000000	          0.00000000	          0.00000000	          0.00000000	         -2.52800433	          0.00000000	
          1.05200000	          0.00000000	          0.00000000	          0.00000000	          0.00000000	          0.00000000	          0.00000000	        137.32964528	        650.84550082	         17.86709113	          0.04278632	         -0.10000000	          0.00733725	          0.00000000	          0.00000000	          0.00000000	          0.00000000	         -2.60861432	          0.00000000	
          1.05600000	          0.00000000	          0.00000000	          0.00000000	          0.00000000	          0.00000000	          0.00000000	        145.24609717	        665.32747806	         16.64242320	          0.04314595	         -0.10000000	          0.00757269	          0.00000000	          0.00000000	          0.00000000	          0.00000000	         -2.68066942	          0.00000000	
          1.06000000	          0.00000000	          0.00000000	          0.00000000	          0.00000000	          0.00000000	          0.00000000	        153.21573164	        677.68645728	         15.27884988	          0.04350047	         -0.10000000	          0.00778256	          0.00000000	          0.00000000	          0.00000000	          0.00000000	         -2.74349603	          0.00000000	
          1.06400000	          0.00000000	          0.00000000	          0.00000000	          0.00000000	          0.00000000	          0.00000000	        161.19457672	        687.58723927	         13.84302241	          0.04388986	         -0.10000000	          0.00799362	          0.00000000	          0.00000000	          0.00000000	          0.00000000	         -2.79607582	          0.00000000	
          1.06800000	          0.00000000	          0.00000000	          0.00000000	          0.00000000	          0.00000000	          0.00000000	        169.10650001	        694.66429299	         12.35833684	          0.04432717	         -0.10000000	          0.00822127	          0.00000000	          0.00000000	          0.00000000	          0.00000000	         -2.83658140	          0.00000000	
          1.07200000	          0.00000000	          0.00000000	          0.00000000	          0.00000000	          0.00000000	          0.00000000	        176.83445722	        698.53432331	         10.80907110	          0.04480551	         -0.10000000	          0.00847744	          0.00000000	          0.00000000	          0.00000000	          0.00000000	         -2.86189141	          0.00000000	
          1.07600000	          0.00000000	          0.00000000	          0.00000000	          0.00000000	          0.00000000	          0.00000000	        184.20122878	        698.78406918	          9.18534438	          0.04531286	         -0.10000000	          0.00876793	          0.00000000	          0.00000000	          0.00000000	          0.00000000	         -2.86733365	          0.00000000	
          1.08000000	        -26.02486880	         54.95094027	          6.32241096	          0.71077468	          0.00000000	          0.11886506	        190.94847835	        694.97162315	          7.51835725	          0.04583276	         -0.10000000	          0.00908480	          0.00000000	          0.02425002	          0.00000000	          0.00000000	         -2.84703294	          0.00000000	
          1.08400000	        -42.44713938	        144.88236262	         15.96701028	          0.71180916	          0.00000000	          0.11693942	        196.73398785	        686.63919645	          5.86804206	          0.04635070	         -0.10000000	          0.00940441	          0.00000000	          0.25004371	          0.00000000	          0.00000000	         -2.79502219	          0.00000000	
          1.08800000	        -55.23651843	        226.55262994	         25.37479245	          0.71259535	          0.00000000	          0.11546153	        201.15996746	        673.31905912	          4.29122245	          0.04686887	         -0.10000000	          0.00970538	          0.00000000	          0.37628930	          0.00000000	          0.00000000	         -2.70677282	          0.00000000	
          1.09200000	        -62.36964173	        294.14242357	         33.95142011	          0.71228935	          0.00000000	          0.11488530	        203.82302331	        654.54082991	          2.83918335	          0.04742006	         -0.10000000	          0.00997948	          0.00000000	          0.33983941	          0.00000000	          0.00000000	         -2.58048695	          0.00000000	
          1.09600000	        -63.65565281	        346.22593014	         40.79973960	          0.71057890	          0.00000000	          0.11543665	        204.34982533	        629.91745621	          1.56472214	          0.04802805	         -0.10000000	          0.01020236	          0.00000000	          0.10023655	          0.00000000	          0.00000000	         -2.41771009	          0.00000000	
          1.10000000	        -60.48434827	        385.01758048	         44.92881800	          0.70862557	          0.00000000	          0.11658445	        202.39521088	        599.33504925	          0.50011878	          0.04869696	         -0.10000000	          0.01034177	          0.00000000	         -0.33662449	          0.00000000	          0.00000000	         -2.22323507	          0.00000000	
          1.10400000	        -55.36164658	        413.79486980	         45.55165577	          0.70825348	          0.00000000	          0.11764748	        197.64062610	        563.09945497	         -0.35918996	          0.04950589	         -0.10000000	          0.01040680	          0.00000000	         -0.90085305	          0.00000000	          0.00000000	         -2.00440650	          0.00000000	
          1.10800000	        -51.22615812	        435.15081590	         42.24894705	          0.70982580	          0.00000000	          0.11876615	        189.85125404	        521.91295558	         -1.02749011	          0.05056678	         -0.10000000	          0.01044073	          0.00000000	         -1.46006897	          0.00000000	          0.00000000	         -1.76999294	          0.00000000	
          1.11200000	        -50.65570257	        451.69242488	         35.08769164	          0.71251906	          0.00000000	          0.12050758	        178.97315859	        476.78332125	         -1.50992747	          0.05196193	         -0.10000000	          0.01047308	          0.00000000	         -1.84602717	          0.00000000	          0.00000000	         -1.52903741	          0.00000000	
          1.11600000	        -55.55021146	        467.55447304	         24.72528754	          0.71572352	          0.00000000	          0.12294167	        165.20373378	        429.00853455	         -1.82515317	          0.05375410	         -0.10000000	          0.01050820	          0.00000000	         -1.90096841	          0.00000000	          0.00000000	         -1.29012024	          0.00000000	
          1.12000000	        -67.22645492	        488.08221986	         12.32624624	          0.71988861	          0.00000000	          0.12546088	        149.01329788	        380.18022744	         -2.02109089	          0.05600774	         -0.10000000	          0.01055091	          0.00000000	         -1.52910435	          0.00000000	          0.00000000	         -1.06102378	          0.00000000	
          1.12400000	        -86.14294830	        517.42396525	         -0.65067742	          0.72570256	          0.00000000	          0.12731733	        131.13051195	        332.07258700	         -2.16581378	          0.05875919	         -0.10000000	          0.01061857	          0.00000000	         -0.73521661	          0.00000000	          0.00000000	         -0.84843511	          0.00000000	
